<svg viewBox="0 -20 512 512" xmlns="http://www.w3.org/2000/svg"><path d="m30 372h452v40h-452zm0 0" fill="#e1e5ea"/><path d="m10 412h492v50h-492zm0 0" fill="#8898a8"/><path d="m30 10h452v40h-452zm0 0" fill="#e1e5ea"/><path d="m30 50v322h452v-322zm0 0" fill="#f03c32"/><path d="m130 292h256l-130-202zm0 0" fill="#fac800"/><path d="m502 402h-10v-392c0-5.523438-4.476562-10-10-10h-452c-5.523438 0-10 4.476562-10 10v392h-10c-5.523438 0-10 4.476562-10 10v50c0 5.523438 4.476562 10 10 10h492c5.523438 0 10-4.476562 10-10v-50c0-5.523438-4.476562-10-10-10zm-462-342h432v302h-432zm0-40h432v20h-432zm0 362h432v20h-432zm452 70h-472v-30h472zm0 0"/><path d="m394.425781 296.597656c1.695313-3.042968 2.011719-6.855468-.015625-10.007812 0 0-129.929687-201.890625-130-202-3.761718-5.84375-12.960937-6.1875-16.894531.117187 0 0-125.550781 201.28125-126 202-4.089844 6.554688.8125 15.292969 8.484375 15.292969h255.996094c3.550781 0 6.703125-2.304688 8.429687-5.402344zm-246.402343-14.597656 108.109374-173.316406 111.539063 173.316406zm0 0"/><path d="m256 242c-5.511719 0-10 4.488281-10 10s4.488281 10 10 10 10-4.488281 10-10-4.488281-10-10-10zm0 0"/><path d="m246 182v30c0 5.511719 4.488281 10 10 10s10-4.488281 10-10v-30c0-5.511719-4.488281-10-10-10s-10 4.488281-10 10zm0 0"/><path d="m442 80h-40c-5.523438 0-10 4.476562-10 10s4.476562 10 10 10h30v30c0 5.523438 4.476562 10 10 10s10-4.476562 10-10v-40c0-5.523438-4.476562-10-10-10zm0 0"/><path d="m442 282c-5.523438 0-10 4.476562-10 10v30h-30c-5.523438 0-10 4.476562-10 10s4.476562 10 10 10h40c5.523438 0 10-4.476562 10-10v-40c0-5.523438-4.476562-10-10-10zm0 0"/><path d="m110 80h-40c-5.523438 0-10 4.476562-10 10v40c0 5.523438 4.476562 10 10 10s10-4.476562 10-10v-30h30c5.523438 0 10-4.476562 10-10s-4.476562-10-10-10zm0 0"/><path d="m110 322h-30v-30c0-5.523438-4.476562-10-10-10s-10 4.476562-10 10v40c0 5.523438 4.476562 10 10 10h40c5.523438 0 10-4.476562 10-10s-4.476562-10-10-10zm0 0"/></svg>