<?xml version="1.0" encoding="utf-8"?>
<!-- Generator: Adobe Illustrator 17.0.0, SVG Export Plug-In . SVG Version: 6.00 Build 0)  -->
<!DOCTYPE svg PUBLIC "-//W3C//DTD SVG 1.1//EN" "http://www.w3.org/Graphics/SVG/1.1/DTD/svg11.dtd">
<svg version="1.1" id="Capa_1" xmlns="http://www.w3.org/2000/svg" xmlns:xlink="http://www.w3.org/1999/xlink" x="0px" y="0px"
	 width="792px" height="360px" viewBox="0 0 792 360" enable-background="new 0 0 792 360" xml:space="preserve">
<g>
	<g>
		<path fill="#1D1D1B" d="M596.612,69.808c-11.767,2.615-44.161,19.466-44.161,19.466l-1.017-16.415
			c-7.408,6.392-28.763,33.702-28.763,33.702l-2.179-9.152c-32.495,32.937-25.718,54.266-20.618,62.585
			c1.908-1.631,3.786-3.251,5.491-4.818c1.943-1.786,3.869-3.591,5.803-5.386c2.34-7.543,4.68-15.085,7.02-22.628
			c0.623-2.006,3.778-1.15,3.152,0.869c-1.789,5.767-3.578,11.534-5.367,17.3c1.724-1.61,3.446-3.223,5.166-4.838
			c0.079-0.102,0.172-0.195,0.289-0.271c2.793-2.623,5.588-5.245,8.374-7.876c0.768-0.725,1.533-1.454,2.301-2.18
			c0.012-0.036,0.017-0.07,0.032-0.106c3.147-7.687,6.295-15.374,9.442-23.061c0.787-1.923,3.951-1.082,3.152,0.869
			c-2.305,5.63-4.61,11.259-6.915,16.889c8.654-8.196,17.293-16.408,25.901-24.653c1.521-1.457,3.836,0.851,2.311,2.311
			c-5.097,4.882-10.205,9.752-15.318,14.617c4.537-0.897,9.074-1.795,13.611-2.692c2.058-0.407,2.936,2.743,0.869,3.152
			c-6.208,1.228-12.415,2.455-18.622,3.683c-0.084,0.017-0.163,0.018-0.242,0.024c-4.947,4.697-9.897,9.39-14.859,14.071
			c-1.401,1.322-2.807,2.637-4.209,3.958c6.834-1.008,13.669-2.016,20.504-3.025c2.061-0.304,2.948,2.845,0.869,3.152
			c-8.503,1.254-17.007,2.509-25.51,3.763c-5.466,5.134-10.944,10.254-16.475,15.318c-1.522,1.393-3.184,2.81-4.878,4.236
			c0.689,0.841,1.15,1.27,1.15,1.27c23.969,23.097,71.906-17.141,71.906-17.141l-10.168-5.375
			c9.878-6.392,30.941-28.327,30.941-28.327l-13.51-3.777C591.673,91.162,596.612,69.808,596.612,69.808z"/>
		<path fill="#1D1D1B" d="M492.14,166.742c-1.608,1.484,0.244,4.135,1.65,2.822c2.45-2.288,5.255-4.603,7.976-6.894
			c-0.53-0.647-1.194-1.541-1.891-2.677C497.229,162.256,494.526,164.541,492.14,166.742z"/>
	</g>
	<g>
		<path fill="#1D1D1B" d="M80.173,282.764c2.123-7.572,4.718-15.049,6.276-22.736c3.743-18.471,6.996-37.041,10.463-55.569
			c0.186-0.996,0.494-1.972,0.793-2.943c3.821-12.428,3.233-13.106,18.637-15.279c3.43-0.484,6.96-0.245,10.441-0.393
			c2.464-0.105,3.634,0.779,3.766,3.476c0.953,19.568,1.96,39.134,3.096,58.693c1.506,25.935,3.091,51.866,4.762,77.792
			c0.475,7.374,1.338,14.725,2.084,22.08c0.294,2.9-1.025,4.479-3.79,4.75c-7.257,0.711-14.224-0.488-20.63-3.985
			c-1.032-0.563-1.742-2.532-1.821-3.897c-0.582-10.001-1.008-20.012-1.403-30.024c-0.772-19.591-1.398-39.188-2.266-58.775
			c-0.559-12.594-1.443-25.174-2.653-38.018c-0.342,1.353-0.749,2.693-1.016,4.06c-4.214,21.658-8.403,43.32-12.62,64.977
			c-0.582,2.989-1.373,5.939-1.907,8.936c-1.455,8.163-9.62,13.783-19.411,10.558c-1.686-0.555-3.15-3.353-3.746-5.398
			c-3.691-12.671-7.185-25.4-10.587-38.153c-3.4-12.746-6.614-25.542-9.91-38.316c-0.418,0.001-0.836,0.001-1.254,0.002
			c0,10.153-0.06,20.306,0.011,30.459c0.203,28.758,0.473,57.516,0.688,86.275c0.064,8.588-1.557,11.074-10.179,11.822
			c-5.326,0.462-10.868-0.898-16.218-1.931c-1.093-0.211-2.588-2.668-2.497-3.992c0.64-9.256,2.093-18.469,2.45-27.728
			c0.897-23.219,1.242-46.458,2.018-69.682c0.654-19.59,1.503-39.175,2.479-58.752c0.303-6.086,2.471-7.581,8.156-5.186
			c6.924,2.917,13.534,6.601,20.168,10.16c1.082,0.581,1.953,2.126,2.312,3.397c3.545,12.56,7.097,25.121,10.379,37.751
			c3.759,14.467,7.242,29.005,10.87,43.507c0.163,0.653,0.57,1.245,0.863,1.865C79.378,282.63,79.776,282.697,80.173,282.764z"/>
		<path fill="#1D1D1B" d="M238.724,302.61c-1.665,7.637-3.145,15.32-5.047,22.898c-1.935,7.712-5.328,14.733-11.322,20.236
			c-8.986,8.249-19.886,8.847-31.066,7.303c-12.992-1.795-21.385-10.561-28.402-20.605c-10.096-14.452-15.282-30.906-17.587-48.211
			c-2.7-20.269-2.854-40.54,2.448-60.507c4.608-17.352,16.344-26.906,33.733-29.706c23.436-3.774,45.929,0.555,67.872,8.642
			c1.103,0.407,2.319,2.486,2.266,3.735c-0.354,8.398-3.752,11.838-12.025,11.056c-6.429-0.607-12.763-2.402-19.08-3.915
			c-2.515-0.602-4.862-1.892-7.301-2.828c-14.194-5.448-26.032-1.523-34.114,11.403c-12.513,20.011-14.97,41.454-8.579,63.955
			c2.255,7.939,4.548,16.001,8.084,23.404c3.326,6.963,7.771,13.583,12.708,19.538c6.245,7.533,15.971,7.218,21.56-0.888
			c3.86-5.599,6.893-12.206,8.53-18.8c2.707-10.902,3.989-22.157,4.935-33.797c-1.023,1.677-2.18,3.288-3.046,5.044
			c-3.542,7.186-7.564,8.298-13.617,3.106c-4.225-3.625-7.931-7.854-11.905-11.849c19.146-11.681,37.291-22.974,55.71-33.801
			c3.735-2.195,8.454-2.865,12.813-3.799c3.172-0.68,5.585,0.962,5.784,4.311c0.228,3.845,0.112,7.755-0.379,11.57
			c-0.152,1.182-1.839,2.499-3.128,3.141c-3.895,1.937-7.881,3.725-11.947,5.271c-2.605,0.99-3.237,2.255-2.984,5.148
			c1.917,21.959,3.737,43.93,5.135,65.926c0.295,4.649-0.794,9.555-2.102,14.096c-1.671,5.8-5.474,7.844-11.489,7.93
			c-3.534,0.051-4.866-1.171-4.899-4.786c-0.122-13.347-0.503-26.691-0.778-40.036c-0.029-1.409-0.004-2.818-0.004-4.228
			C239.243,302.58,238.983,302.595,238.724,302.61z"/>
		<path fill="#1D1D1B" d="M413.371,227.918c0.181-3.468,0.66-6.075,0.384-8.599c-0.754-6.887-5.142-11.575-11.076-13.995
			c-4.836-1.973-10.377-3.096-15.594-3.059c-8.831,0.063-14.817,4.965-17.898,13.402c-3.196,8.752-2.828,16.971,3.894,23.874
			c4.729,4.857,10,9.197,15.128,13.654c11.264,9.789,22.598,19.498,33.89,29.255c10.233,8.842,12.06,20.526,11.574,33.203
			c-0.424,11.075-3.947,20.444-13.051,27.203c-6.362,4.723-13.799,7.3-21.48,7.645c-10.251,0.461-20.666,0.41-30.82-0.898
			c-14.435-1.86-22.875-11.27-24.594-25.842c-0.554-4.697-0.891-9.619-0.102-14.228c1.281-7.482,11.229-10.332,16.85-5.157
			c0.72,0.663,0.913,2.012,1.129,3.088c0.798,3.968,1.249,8.023,2.295,11.921c2.239,8.339,7.837,13.635,16.24,15.088
			c6.093,1.054,12.415,1.372,18.603,1.143c7.154-0.264,11.699-4.54,13.659-11.439c3.331-11.722,1.265-22.491-7.53-30.899
			c-8.575-8.197-18.096-15.406-27.203-23.046c-7.109-5.964-14.498-11.628-21.271-17.951c-13.191-12.314-15.661-26.945-8.245-43.554
			c6.886-15.422,19.932-20.663,35.441-21.584c5.75-0.341,11.631-0.002,17.341,0.808c15.112,2.143,28.207,14.319,31.919,29.109
			c1.542,6.143-1.353,10.365-7.714,10.81C421.3,228.138,417.429,227.918,413.371,227.918z"/>
		<path fill="#1D1D1B" d="M739.612,187.963c-12.235-3.96-24.775-4.749-37.431-4.095c-17.9,0.925-35.903,1.856-49.912,16.452
			c-9.388-13.578-21.627-10.251-34.354-5.28c-1.455-4.878-3.859-8.519-9.223-7.747c-9.46,1.363-18.353,4.209-25.877,10.487
			c-11.043,9.215-17.169,21.436-21.095,34.865c-2.225,7.612-3.668,15.452-5.464,23.189c-0.258-4.563-4.018-4.314-6.819-4.365
			c-3.909-0.07-4.836-1.682-4.857-5.285c-0.084-14.23-0.26-28.465-0.822-42.681c-0.116-2.952-1.55-6.14-3.204-8.681
			c-3.119-4.791-7.704-5.696-13.873-3.508c-7.978,2.829-9.05,4.161-8.878,11.089c0.383,15.392-0.379,35.717-0.006,51.11
			l-37.41,0.123c0.213-15.528,0.003-37.239,0.273-52.766c0.078-4.454-1.577-7.259-4.938-9.831
			c-5.306-4.06-10.917-3.827-16.432-1.274c-5.071,2.348-6.879,6.59-6.567,12.458c0.842,15.804,0.914,31.647,1.649,47.458
			c0.192,4.129-1.259,5.459-5.034,6.13c-5.845,1.039-11.321,3.209-13.937,9.176c-3.442,7.851-2.223,15.599,1.134,23.167
			c1.102,2.485,2.865,2.872,4.691,0.859c2.037-2.245,3.779-4.757,5.727-7.087c1.88-2.248,3.86-4.413,6.603-7.532
			c0.587,7.435,1.262,13.432,1.496,19.445c0.66,16.977,1.099,33.963,1.767,50.939c0.051,1.292,1.003,3.438,1.909,3.66
			c5.024,1.229,10.135,2.444,15.273,2.77c4.744,0.301,6.955-2.047,7.265-6.826c0.46-7.094,0.837-14.211,0.79-21.316
			c-0.102-15.538-0.405-31.077-0.826-46.61c-0.105-3.861,0.697-5.877,5.109-5.99c8.991-0.231,17.987-0.747,26.945-1.543
			c4.474-0.397,5.877,1.327,6.052,5.511c0.908,21.756,2.367,43.499,2.759,65.262c0.123,6.831,2.616,10.845,8.413,12.704
			c8.774,2.814,15.845,1.829,15.388-9.015c-0.704-16.677-1.128-33.367-1.549-50.055c-0.173-6.883-0.029-13.773-0.029-21.884
			c2.671,2.781,4.239,5.853,6.474,6.457c5.604,1.516,5.757,5.595,6.249,9.928c1.539,13.556,4.959,26.593,12.268,38.227
			c6.211,9.887,13.943,18.46,25.921,21.259c21.994,5.139,39.963-2.709,53.995-19.187c16.684-19.591,21.367-47.282,18.983-72.696
			c-2.189-26.967-9.724-39.521-9.724-39.521c0.231-4.509,12.426-13.093,18.136-14.026c0,5.555,0.007,10.759-0.001,15.962
			c-0.064,40.812-0.126,81.624-0.201,122.436c-0.018,9.649,1.466,11.271,11.181,12.006c1.303,0.099,2.61,0.171,3.916,0.181
			c4.393,0.034,7.83-1.854,9.064-6.068c1.17-3.993,1.975-8.224,2.087-12.373c0.454-16.838,0.591-33.685,0.818-50.529
			c0.077-5.732,0.046-5.598,5.752-5.794c14.158-0.486,28.129-2.127,40.954-8.728c10.554-5.432,18.226-13.669,21.027-25.368
			C777.314,218.149,764.46,196.005,739.612,187.963z M648.61,293.415c-2.421,10.112-6.167,19.69-13.535,27.371
			c-8.895,9.274-19.888,12.955-32.45,10.761c-10.111-1.766-15.703-9.604-18.918-18.218c-3.202-8.579-5.4-17.852-6.122-26.972
			c-1.643-20.737,0.95-41.151,8.33-60.757c2.134-5.67,4.692-11.168,10.589-15.226c-2.715,4.736-5.53,8.403-7.03,12.546
			c-2.433,6.719-1.934,13.148,3.182,19.078c7.718,8.947,26.424,14.956,36.658,7.147c5.717-4.363,7.589-11.265,3.357-16.329
			c-1.278,1.096-2.544,2.205-3.834,3.286c-6.917,5.796-17.622,3.454-21.243-4.82c-2.011-4.595-0.038-8.63,3.078-11.897
			c5.306-5.564,12.164-8.392,19.636-9.461c5.22-0.747,11.324,3.895,13.535,11.009c2.525,8.125,4.718,16.465,5.891,24.875
			C651.947,261.673,652.383,277.654,648.61,293.415z M751.82,231.343c0.218,36.607-51.86,31.377-51.86,31.377l-0.872-63.626
			C755.524,199.748,751.82,231.343,751.82,231.343z"/>
	</g>
	<g>
		<path fill="#1D1D1B" d="M287.794,155.996c-7.764-1.448-15.527-2.896-23.29-4.345c-2.065-0.385-1.581-3.619,0.497-3.231
			c5.935,1.107,11.871,2.214,17.807,3.322c-1.8-1.526-3.601-3.048-5.405-4.569c-0.111-0.066-0.214-0.148-0.303-0.255
			c-2.93-2.47-5.859-4.941-8.795-7.403c-0.81-0.679-1.623-1.354-2.433-2.033c-0.037-0.008-0.071-0.008-0.109-0.019
			c-8-2.234-16.001-4.467-24.001-6.701c-2.001-0.559-1.534-3.798,0.497-3.231c5.859,1.636,11.719,3.271,17.578,4.907
			c-9.146-7.644-18.305-15.271-27.494-22.863c-1.624-1.342,0.4-3.909,2.027-2.564c5.441,4.495,10.871,9.003,16.297,13.517
			c-1.418-4.402-2.836-8.804-4.254-13.206c-0.643-1.997,2.384-3.234,3.03-1.229c1.94,6.023,3.88,12.046,5.821,18.069
			c0.026,0.081,0.037,0.159,0.052,0.238c5.24,4.368,10.476,8.739,15.701,13.124c1.475,1.238,2.946,2.482,4.42,3.721
			c-1.795-6.671-3.59-13.343-5.385-20.014c-0.541-2.012,2.484-3.258,3.029-1.229c2.233,8.3,4.467,16.6,6.7,24.9
			c5.734,4.833,11.456,9.68,17.127,14.585c1.263,1.092,2.552,2.277,3.852,3.491c19.326-31.363-24.458-70.799-24.458-70.799
			c0,7.554-4.648,10.459-4.648,10.459c-3.196-7.263-30.796-27.31-30.796-27.31l-2.324,13.945
			c-3.196-1.453-41.255-10.459-41.255-10.459c3.051,9.805,25.276,41.836,25.276,41.836c-6.973-1.089-16.27,3.777-16.27,3.777
			c3.486,4.648,36.897,24.695,36.897,24.695l-9.587,3.486c38.82,28.764,58.624,18,64.875,12.706
			c-1.579-1.457-3.142-2.881-4.651-4.18C291.818,159.412,289.802,157.709,287.794,155.996z"/>
		<path fill="#1D1D1B" d="M309.454,170.962c-2.861-2.426-5.807-5.286-8.695-7.983c-0.018,0.03-0.034,0.06-0.053,0.09
			c0,0-0.722,0.963-2.237,2.247c2.804,2.588,5.662,5.286,8.374,7.613C308.502,174.353,310.921,172.206,309.454,170.962z"/>
	</g>
	<path fill="#1D1D1B" d="M422.563,80.494c-6.319-16.317-22.008-13.185-22.008-13.185c-20.7,2.768-23.097,16.973-23.097,16.973
		c-2.179,11.51,6.464,18.138,6.464,18.138c15.543,15.662,30.07,1.967,30.07,1.967C426.486,94.699,422.563,80.494,422.563,80.494z
		 M383.429,97.83c-1.578,0-2.857-1.283-2.857-2.865c0-1.582,1.279-2.865,2.857-2.865c1.578,0,2.857,1.283,2.857,2.865
		C386.285,96.547,385.007,97.83,383.429,97.83z M385.968,86.927c0-1.011,0.817-1.83,1.825-1.83c1.008,0,1.825,0.819,1.825,1.83
		c0,1.011-0.817,1.83-1.825,1.83C386.785,88.757,385.968,87.938,385.968,86.927z M390.094,103.4c-1.49,0-2.698-1.211-2.698-2.706
		c0-1.494,1.208-2.706,2.698-2.706c1.49,0,2.698,1.211,2.698,2.706C392.792,102.189,391.584,103.4,390.094,103.4z M395.57,97.034
		c-0.92,0-1.666-0.748-1.666-1.671c0-0.923,0.746-1.671,1.666-1.671c0.92,0,1.666,0.748,1.666,1.671
		C397.236,96.286,396.49,97.034,395.57,97.034z M395.332,89.076c0-1.407,1.137-2.547,2.539-2.547c1.402,0,2.539,1.14,2.539,2.547
		c0,1.406-1.137,2.547-2.539,2.547C396.468,91.622,395.332,90.482,395.332,89.076z M399.934,104.355
		c-1.052,0-1.904-0.855-1.904-1.91c0-1.055,0.853-1.91,1.904-1.91s1.904,0.855,1.904,1.91
		C401.838,103.5,400.986,104.355,399.934,104.355z M407.71,90.667c1.402,0,2.539,1.14,2.539,2.547c0,1.407-1.137,2.547-2.539,2.547
		s-2.539-1.14-2.539-2.547C405.171,91.807,406.308,90.667,407.71,90.667z M407.155,107.857c-0.833,0-1.508-0.677-1.508-1.512
		c0-0.835,0.675-1.512,1.508-1.512c0.833,0,1.508,0.677,1.508,1.512C408.662,107.18,407.988,107.857,407.155,107.857z
		 M411.122,101.172c-1.183,0-2.142-0.962-2.142-2.149c0-1.187,0.959-2.149,2.142-2.149c1.183,0,2.143,0.962,2.143,2.149
		C413.265,100.21,412.306,101.172,411.122,101.172z M417.867,95.124c-0.876,0-1.587-0.713-1.587-1.592
		c0-0.879,0.711-1.592,1.587-1.592s1.587,0.713,1.587,1.592C419.454,94.411,418.744,95.124,417.867,95.124z M419.375,86.847
		c-1.271,0-2.301-1.033-2.301-2.308c0-1.275,1.03-2.308,2.301-2.308c1.271,0,2.301,1.033,2.301,2.308
		C421.676,85.814,420.646,86.847,419.375,86.847z"/>
	<path fill="none" d="M382.521,101.016c-15.304,15.561-14.169,34.611-14.169,34.611c3.102-6.802,12.357-21.447,12.357-21.447
		c-1.519,3.25-3.182,20.48-3.182,20.48l10.061-21.507l-2.172,22.423c5.228-3.419,8.242-18.582,8.242-18.582l2.608,8.101
		c2.305-4.069,2.193-13.418,2.144-15.354c-4.403-0.339-9.388-2.3-14.486-7.423C383.923,102.318,383.342,101.871,382.521,101.016z"/>
	<path fill="none" d="M377.458,84.232c0,0,0.032-0.178,0.11-0.483l-15.052-8.638l-14.091,1.307l21.499,6.392l-18.739,2.615
		l24.114,4.358l-22.516,3.341c4.649,4.067,21.209,2.905,21.209,2.905l-9.878,5.665c2.677,0,12.453-1.711,16.854-2.507
		C378.7,96.173,376.161,91.066,377.458,84.232z"/>
	<path fill="none" d="M396.448,68.06l0.569-0.359c-3.922-19.538-13.873-29.198-13.873-29.198c1.235,2.47,6.682,24.477,6.682,24.477
		c-2.687-6.827-12.202-16.488-12.202-16.488l7.99,22.807c-4.866-7.263-13.873-17.65-13.873-17.65
		c-0.145,10.169,7.699,19.538,7.699,19.538l-10.168-6.246c1.888,5.012,10.459,13.655,10.459,13.655l0.345-0.218
		C382.579,74.662,387.384,70.174,396.448,68.06z"/>
	<path fill="none" d="M420.499,76.28c12.265-10.477,13.561-27.39,13.561-27.39c0,2.373-15.818,21.634-17.056,23.139
		C418.253,73.173,419.439,74.568,420.499,76.28z"/>
	<path fill="none" d="M416.991,72.017c5.755-8.865,7.917-22.546,7.917-22.546l-13.655,18.884c0.872-3.486,5.229-20.628,5.229-20.628
		c-4.939,3.632-10.459,18.158-10.459,18.158l-0.726-11.04c-1.966,1.352-3.413,9.772-3.811,12.334
		C404.004,66.91,411.188,66.712,416.991,72.017z"/>
	<path fill="none" d="M447.569,96.827l-24.114-4.358l22.516-3.341c-4.649-4.067-21.209-2.905-21.209-2.905l9.878-5.665
		c-2.725,0-9.072,1.239-11.721,1.782c0.42,3.044,0.646,9.32-3.037,15.415l16.356,9.387l14.091-1.307l-21.499-6.392L447.569,96.827z"
		/>
	<path fill="none" d="M413.993,104.279c0,0-5.942,5.572-14.288,5.517c4.438,21.804,21.354,31.483,21.354,31.483
		c-3.995-6.319-11.186-22.08-11.186-22.08c1.889,3.051,15.398,13.873,15.398,13.873l-12.493-20.192l17.577,14.091
		c0-6.246-11.04-17.069-11.04-17.069l8.208,2.252c-1.986-3.851-8.892-8.44-11.208-9.904
		C415.611,102.942,414.843,103.621,413.993,104.279z"/>
	<path fill="#1D1D1B" d="M490.132,103.001c-23.533-37.914-55.346-31.813-55.346-31.813c26.584-26.148,13.292-58.179,13.292-58.179
		c-43.144,6.101-48.809,31.595-48.809,31.595c-6.101-29.852-37.043-38.35-37.043-38.35c-19.393,34.864-4.174,57.669-4.174,57.669
		c-28.578-4.65-50.737,12.494-50.737,12.494c27.891,45.323,61.011,33.338,61.011,33.338c-26.802,26.148-10.677,63.626-10.677,63.626
		c40.311-11.984,46.194-35.735,46.194-35.735c16.342,30.724,45.541,31.595,45.541,31.595c8.498-37.043-3.268-50.988-3.268-50.988
		C485.12,116.511,490.132,103.001,490.132,103.001z M436.238,107.141l-16.356-9.387c-0.923,1.528-2.093,3.044-3.567,4.495
		c2.316,1.464,9.222,6.053,11.208,9.904l-8.208-2.252c0,0,11.04,10.822,11.04,17.069l-17.577-14.091l12.493,20.192
		c0,0-13.51-10.822-15.398-13.873c0,0,7.191,15.761,11.186,22.08c0,0-16.916-9.679-21.354-31.483
		c-0.426-0.003-0.858-0.021-1.296-0.055c0.05,1.936,0.162,11.286-2.144,15.354l-2.608-8.101c0,0-3.014,15.163-8.242,18.582
		l2.172-22.423l-10.061,21.507c0,0,1.663-17.23,3.182-20.48c0,0-9.255,14.645-12.357,21.447c0,0-1.134-19.049,14.169-34.611
		c-0.462-0.482-0.999-1.091-1.553-1.829c-4.4,0.795-14.177,2.507-16.854,2.507l9.878-5.665c0,0-16.56,1.162-21.209-2.905
		l22.516-3.341l-24.114-4.358l18.739-2.615l-21.499-6.392l14.091-1.307l15.052,8.638c0.23-0.899,0.89-2.969,2.507-5.37l-0.345,0.218
		c0,0-8.571-8.643-10.459-13.655l10.168,6.246c0,0-7.844-9.37-7.699-19.538c0,0,9.006,10.386,13.873,17.65l-7.99-22.807
		c0,0,9.515,9.66,12.202,16.488c0,0-5.447-22.008-6.682-24.477c0,0,9.951,9.66,13.873,29.198l-0.569,0.359
		c1.285-0.3,2.646-0.557,4.108-0.752c0,0,0.341-0.066,0.93-0.129c0.399-2.562,1.845-10.982,3.811-12.334l0.726,11.04
		c0,0,5.52-14.527,10.459-18.158c0,0-4.358,17.141-5.229,20.628l13.655-18.884c0,0-2.162,13.681-7.917,22.546
		c0.004,0.004,0.008,0.008,0.013,0.011c1.239-1.505,17.056-20.766,17.056-23.139c0,0-1.296,16.913-13.561,27.39
		c0.76,1.227,1.456,2.609,2.064,4.175c0,0,0.192,0.697,0.356,1.884c2.649-0.543,8.996-1.782,11.721-1.782l-9.878,5.665
		c0,0,16.56-1.162,21.209,2.905l-22.516,3.341l24.114,4.358l-18.739,2.615l21.499,6.392L436.238,107.141z"/>
	<path fill="#FFFFFF" d="M417.004,72.029c-0.004-0.004-0.008-0.008-0.013-0.011c-0.025,0.038-0.048,0.077-0.073,0.115
		C416.918,72.132,416.953,72.09,417.004,72.029z"/>
</g>
</svg>
