<?xml version="1.0" encoding="utf-8"?>
<!-- Generator: Adobe Illustrator 17.0.0, SVG Export Plug-In . SVG Version: 6.00 Build 0)  -->
<!DOCTYPE svg PUBLIC "-//W3C//DTD SVG 1.1//EN" "http://www.w3.org/Graphics/SVG/1.1/DTD/svg11.dtd">
<svg version="1.1" id="Capa_1" xmlns="http://www.w3.org/2000/svg" xmlns:xlink="http://www.w3.org/1999/xlink" x="0px" y="0px"
	 width="792px" height="360px" viewBox="0 0 792 360" enable-background="new 0 0 792 360" xml:space="preserve">
<g>
	<g>
		<g>
			<g>
				<path fill="#EA575D" d="M358.052,58.924c0,0-15.219-22.806,4.174-57.669c0,0,30.942,8.498,37.043,38.35
					c0,0,5.665-25.494,48.809-31.595c0,0,13.292,32.031-13.292,58.179c0,0,31.813-6.101,55.346,31.813
					c0,0-5.012,13.51-44.015,15.253c0,0,11.767,13.945,3.268,50.988c0,0-29.198-0.872-45.541-31.595c0,0-5.883,23.751-46.194,35.735
					c0,0-16.124-37.479,10.677-63.626c0,0-33.121,11.984-61.012-33.338C307.315,71.418,329.474,54.274,358.052,58.924z"/>
				<g>
					<path fill="#FFDD5B" d="M401.375,62.92c0,0,1.598-11.476,3.922-13.074l0.726,11.04c0,0,5.52-14.527,10.459-18.158
						c0,0-4.358,17.141-5.23,20.628l13.655-18.885c0,0-2.179,13.8-7.99,22.661c0,0,17.141-20.773,17.141-23.242
						c0,0-1.307,17.141-13.8,27.6c0,0-12.202-8.28-18.885-7.99"/>
					<path fill="#FFDD5B" d="M421.712,77.591c0,0,9.442-2.034,12.929-2.034l-9.878,5.665c0,0,16.56-1.162,21.209,2.905
						l-22.516,3.341l24.114,4.358l-18.739,2.615l21.499,6.392l-14.091,1.307l-16.706-9.588L421.712,77.591z"/>
					<path fill="#FFDD5B" d="M383.144,93.789c0,0-15.543,2.905-19.03,2.905l9.878-5.665c0,0-16.56,1.162-21.209-2.905l22.516-3.341
						l-24.114-4.358l18.739-2.615l-21.499-6.392l14.091-1.307l16.706,9.588L383.144,93.789z"/>
					<path fill="#FFDD5B" d="M415.538,96.767c0,0,9.588,5.738,11.984,10.386l-8.207-2.252c0,0,11.04,10.822,11.04,17.069
						l-17.577-14.091l12.493,20.192c0,0-13.51-10.822-15.398-13.873c0,0,7.191,15.761,11.185,22.08c0,0-17.287-9.878-21.499-32.176
						C399.559,104.102,412.923,99.744,415.538,96.767z"/>
					<path fill="#FFDD5B" d="M398.398,104.38c0,0,0.446,11.165-2.133,15.715l-2.608-8.101c0,0-3.014,15.163-8.242,18.582
						l2.172-22.423l-10.061,21.507c0,0,1.663-17.23,3.182-20.48c0,0-9.255,14.645-12.357,21.447c0,0-1.195-19.874,15.161-35.605
						C383.512,95.022,394.475,103.821,398.398,104.38z"/>
					<path fill="#FFDD5B" d="M379.73,73.597c0,0-8.571-8.643-10.459-13.655l10.169,6.246c0,0-7.844-9.37-7.699-19.538
						c0,0,9.006,10.386,13.873,17.65l-7.99-22.807c0,0,9.515,9.66,12.202,16.488c0,0-5.447-22.008-6.682-24.477
						c0,0,9.951,9.66,13.873,29.198L379.73,73.597z"/>
				</g>
			</g>
			<path fill="#66913C" d="M596.612,64.808c0,0-4.939,21.354-14.527,39.512l13.51,3.777c0,0-21.063,21.935-30.942,28.327
				l10.169,5.375c0,0-47.938,40.239-71.906,17.141c0,0-25.131-23.242,17.577-66.532l2.179,9.152c0,0,21.354-27.31,28.763-33.702
				l1.017,16.415C552.451,84.274,584.845,67.423,596.612,64.808z"/>
		</g>
		<path fill="#D93D46" d="M377.333,78.899c0,0,2.397-14.163,23.097-16.923c0,0,15.689-3.123,22.008,13.147
			c0,0,3.922,14.163-8.571,23.824c0,0-14.527,13.655-30.07-1.961C383.798,96.984,375.154,90.375,377.333,78.899z"/>
		<path fill="#5D7428" d="M564.32,109.339c-4.537,0.897-9.074,1.795-13.611,2.692c5.113-4.865,10.221-9.735,15.318-14.617
			c1.525-1.46-0.79-3.768-2.311-2.311c-8.608,8.245-17.247,16.457-25.901,24.653c2.305-5.63,4.61-11.259,6.915-16.889
			c0.799-1.951-2.364-2.792-3.152-0.869c-3.147,7.687-6.295,15.374-9.442,23.061c-0.015,0.037-0.019,0.07-0.032,0.106
			c-0.768,0.726-1.533,1.455-2.302,2.18c-2.786,2.63-5.581,5.252-8.374,7.876c-0.117,0.076-0.21,0.169-0.289,0.272
			c-1.72,1.615-3.442,3.228-5.166,4.838c1.789-5.767,3.578-11.534,5.367-17.3c0.626-2.019-2.529-2.875-3.152-0.869
			c-2.34,7.543-4.68,15.085-7.02,22.628c-1.935,1.795-3.86,3.6-5.803,5.386c-4.069,3.74-9.12,7.779-13.226,11.567
			c-1.608,1.484,0.244,4.135,1.65,2.822c3.976-3.712,8.888-7.499,12.854-11.13c5.53-5.064,11.009-10.184,16.475-15.318
			c8.503-1.254,17.007-2.509,25.51-3.763c2.079-0.307,1.192-3.456-0.869-3.152c-6.835,1.008-13.669,2.017-20.504,3.025
			c1.402-1.321,2.808-2.636,4.209-3.958c4.962-4.681,9.912-9.374,14.859-14.071c0.08-0.005,0.159-0.007,0.242-0.024
			c6.207-1.228,12.415-2.455,18.622-3.683C567.255,112.082,566.378,108.932,564.32,109.339z"/>
		<g>
			<path fill="#5D7529" d="M80.173,277.764c2.123-7.572,4.718-15.049,6.276-22.736c3.743-18.471,6.996-37.041,10.463-55.569
				c0.186-0.996,0.494-1.972,0.793-2.943c3.821-12.428,3.233-13.106,18.637-15.279c3.43-0.484,6.96-0.245,10.441-0.393
				c2.464-0.105,3.634,0.778,3.766,3.476c0.953,19.568,1.96,39.134,3.096,58.693c1.506,25.935,3.091,51.866,4.762,77.792
				c0.475,7.374,1.338,14.725,2.084,22.08c0.294,2.9-1.025,4.479-3.79,4.75c-7.257,0.711-14.224-0.488-20.63-3.985
				c-1.032-0.563-1.742-2.533-1.821-3.897c-0.582-10.001-1.008-20.012-1.403-30.024c-0.772-19.591-1.398-39.188-2.266-58.775
				c-0.559-12.594-1.443-25.174-2.653-38.018c-0.342,1.353-0.749,2.693-1.016,4.06c-4.214,21.658-8.403,43.32-12.62,64.977
				c-0.582,2.989-1.373,5.939-1.907,8.936c-1.455,8.163-9.62,13.783-19.411,10.558c-1.686-0.555-3.15-3.353-3.746-5.398
				c-3.691-12.671-7.185-25.4-10.587-38.153c-3.4-12.746-6.614-25.542-9.91-38.316c-0.418,0.001-0.836,0.001-1.254,0.002
				c0,10.153-0.06,20.306,0.011,30.459c0.203,28.758,0.473,57.516,0.688,86.275c0.064,8.588-1.557,11.074-10.179,11.822
				c-5.326,0.462-10.868-0.898-16.218-1.931c-1.093-0.211-2.588-2.668-2.497-3.992c0.64-9.256,2.093-18.469,2.45-27.728
				c0.897-23.219,1.242-46.458,2.018-69.682c0.654-19.59,1.503-39.175,2.479-58.752c0.303-6.086,2.471-7.581,8.156-5.186
				c6.924,2.917,13.534,6.601,20.168,10.16c1.082,0.581,1.953,2.126,2.312,3.397c3.545,12.56,7.097,25.121,10.379,37.751
				c3.759,14.467,7.242,29.005,10.87,43.507c0.163,0.653,0.57,1.245,0.863,1.865C79.378,277.63,79.776,277.697,80.173,277.764z"/>
			<path fill="#5D7529" d="M238.724,297.61c-1.665,7.637-3.145,15.32-5.047,22.898c-1.935,7.712-5.328,14.733-11.322,20.236
				c-8.986,8.249-19.886,8.847-31.066,7.303c-12.992-1.795-21.385-10.561-28.402-20.605c-10.096-14.452-15.282-30.906-17.587-48.211
				c-2.7-20.269-2.854-40.54,2.448-60.507c4.608-17.352,16.344-26.906,33.733-29.706c23.436-3.774,45.929,0.555,67.872,8.642
				c1.103,0.407,2.319,2.486,2.266,3.735c-0.354,8.398-3.752,11.838-12.025,11.056c-6.429-0.607-12.763-2.402-19.08-3.915
				c-2.515-0.602-4.862-1.892-7.301-2.828c-14.194-5.448-26.032-1.523-34.114,11.403c-12.513,20.011-14.97,41.454-8.579,63.955
				c2.255,7.939,4.548,16.001,8.084,23.404c3.326,6.963,7.771,13.583,12.708,19.538c6.245,7.533,15.971,7.218,21.56-0.888
				c3.86-5.599,6.893-12.206,8.53-18.8c2.707-10.902,3.989-22.157,4.935-33.797c-1.023,1.677-2.18,3.288-3.046,5.044
				c-3.542,7.186-7.564,8.298-13.617,3.106c-4.225-3.625-7.931-7.854-11.905-11.849c19.146-11.681,37.291-22.974,55.71-33.801
				c3.735-2.195,8.454-2.865,12.813-3.799c3.172-0.68,5.585,0.962,5.784,4.311c0.228,3.845,0.112,7.755-0.379,11.57
				c-0.152,1.182-1.839,2.499-3.128,3.141c-3.895,1.937-7.881,3.725-11.947,5.271c-2.605,0.99-3.237,2.255-2.984,5.148
				c1.917,21.959,3.737,43.93,5.135,65.926c0.295,4.649-0.794,9.555-2.102,14.096c-1.671,5.8-5.474,7.843-11.489,7.93
				c-3.534,0.051-4.866-1.171-4.899-4.786c-0.122-13.347-0.503-26.691-0.778-40.036c-0.029-1.409-0.004-2.818-0.004-4.228
				C239.243,297.58,238.983,297.595,238.724,297.61z"/>
			<path fill="#5D7529" d="M413.371,222.918c0.181-3.468,0.66-6.075,0.384-8.599c-0.754-6.887-5.142-11.575-11.076-13.995
				c-4.836-1.973-10.377-3.096-15.594-3.059c-8.831,0.063-14.817,4.965-17.898,13.402c-3.196,8.752-2.828,16.971,3.894,23.874
				c4.729,4.857,10,9.197,15.128,13.654c11.264,9.789,22.598,19.498,33.89,29.255c10.233,8.842,12.06,20.526,11.574,33.203
				c-0.424,11.075-3.947,20.444-13.051,27.203c-6.362,4.723-13.799,7.3-21.48,7.645c-10.251,0.461-20.666,0.41-30.82-0.898
				c-14.435-1.86-22.875-11.27-24.594-25.842c-0.554-4.697-0.891-9.619-0.102-14.228c1.281-7.482,11.229-10.332,16.85-5.157
				c0.72,0.663,0.913,2.012,1.129,3.088c0.798,3.968,1.249,8.023,2.295,11.921c2.239,8.339,7.837,13.635,16.24,15.088
				c6.093,1.054,12.415,1.372,18.603,1.143c7.154-0.264,11.699-4.54,13.659-11.439c3.331-11.722,1.265-22.491-7.53-30.899
				c-8.575-8.197-18.096-15.406-27.203-23.046c-7.109-5.964-14.498-11.627-21.271-17.951c-13.191-12.314-15.661-26.945-8.245-43.554
				c6.886-15.422,19.932-20.663,35.441-21.584c5.75-0.341,11.631-0.002,17.341,0.808c15.112,2.143,28.207,14.319,31.919,29.109
				c1.542,6.143-1.353,10.365-7.714,10.81C421.3,223.138,417.429,222.918,413.371,222.918z"/>
			<path fill="#5D7529" d="M739.612,182.963c-12.235-3.96-24.775-4.749-37.431-4.095c-17.9,0.925-35.903,1.856-49.912,16.452
				c-9.388-13.578-21.627-10.251-34.354-5.28c-1.455-4.878-3.859-8.519-9.223-7.747c-9.46,1.363-18.353,4.209-25.877,10.487
				c-11.043,9.215-17.169,21.436-21.095,34.865c-2.225,7.612-3.668,15.452-5.464,23.189c-0.258-4.563-4.018-4.314-6.819-4.365
				c-3.909-0.07-4.836-1.682-4.857-5.285c-0.084-14.23-0.26-28.465-0.822-42.681c-0.116-2.952-1.55-6.14-3.204-8.681
				c-3.119-4.791-7.704-5.696-13.873-3.508c-7.978,2.829-9.05,4.161-8.878,11.089c0.383,15.392-0.379,35.717-0.006,51.11
				l-37.41,0.123c0.213-15.528,0.003-37.239,0.273-52.766c0.078-4.454-1.577-7.259-4.938-9.831
				c-5.306-4.06-10.917-3.827-16.432-1.274c-5.071,2.348-6.879,6.59-6.567,12.458c0.842,15.804,0.914,31.647,1.649,47.458
				c0.192,4.129-1.259,5.459-5.034,6.13c-5.845,1.039-11.321,3.209-13.937,9.176c-3.442,7.851-2.223,15.599,1.134,23.167
				c1.102,2.485,2.865,2.872,4.691,0.859c2.037-2.245,3.779-4.757,5.727-7.087c1.88-2.248,3.86-4.413,6.603-7.532
				c0.587,7.435,1.262,13.432,1.496,19.445c0.66,16.977,1.099,33.963,1.767,50.939c0.051,1.292,1.003,3.438,1.909,3.66
				c5.024,1.229,10.135,2.444,15.273,2.77c4.744,0.301,6.955-2.047,7.265-6.826c0.46-7.094,0.837-14.211,0.79-21.316
				c-0.102-15.538-0.405-31.077-0.826-46.61c-0.105-3.861,0.697-5.877,5.109-5.99c8.991-0.231,17.987-0.747,26.945-1.543
				c4.474-0.397,5.877,1.327,6.052,5.511c0.908,21.756,2.367,43.499,2.759,65.262c0.123,6.831,2.616,10.845,8.413,12.704
				c8.774,2.814,15.845,1.829,15.388-9.015c-0.704-16.677-1.128-33.367-1.549-50.055c-0.173-6.883-0.029-13.773-0.029-21.884
				c2.671,2.781,4.239,5.853,6.474,6.457c5.604,1.516,5.757,5.595,6.249,9.928c1.539,13.555,4.959,26.593,12.268,38.227
				c6.211,9.887,13.943,18.46,25.921,21.259c21.994,5.139,39.963-2.709,53.995-19.187c16.684-19.591,21.367-47.282,18.983-72.696
				c-2.189-26.967-9.724-39.521-9.724-39.521c0.231-4.509,12.426-13.093,18.136-14.026c0,5.555,0.007,10.759-0.001,15.962
				c-0.064,40.812-0.126,81.624-0.201,122.436c-0.018,9.649,1.466,11.271,11.181,12.006c1.303,0.099,2.61,0.171,3.916,0.181
				c4.393,0.034,7.83-1.854,9.064-6.068c1.17-3.993,1.975-8.224,2.087-12.374c0.454-16.838,0.591-33.685,0.818-50.529
				c0.077-5.732,0.046-5.598,5.752-5.793c14.158-0.486,28.129-2.127,40.954-8.728c10.554-5.432,18.226-13.669,21.027-25.368
				C777.314,213.149,764.46,191.005,739.612,182.963z M648.61,288.415c-2.421,10.112-6.167,19.69-13.535,27.371
				c-8.895,9.274-19.888,12.955-32.45,10.761c-10.111-1.766-15.703-9.604-18.918-18.218c-3.202-8.579-5.4-17.852-6.122-26.972
				c-1.643-20.737,0.95-41.151,8.33-60.757c2.134-5.67,4.692-11.168,10.589-15.226c-2.715,4.736-5.53,8.403-7.03,12.546
				c-2.433,6.719-1.934,13.148,3.182,19.078c7.718,8.947,26.424,14.956,36.658,7.147c5.717-4.363,7.589-11.265,3.357-16.329
				c-1.278,1.096-2.544,2.205-3.834,3.286c-6.917,5.796-17.622,3.454-21.243-4.82c-2.011-4.595-0.038-8.63,3.078-11.897
				c5.306-5.564,12.164-8.392,19.636-9.461c5.22-0.747,11.324,3.895,13.535,11.009c2.525,8.125,4.718,16.465,5.891,24.875
				C651.947,256.673,652.383,272.654,648.61,288.415z M751.82,226.343c0.218,36.607-51.86,31.377-51.86,31.377l-0.872-63.626
				C755.524,194.748,751.82,226.343,751.82,226.343z"/>
		</g>
		<path fill="#66913C" d="M197.277,73.815c0,0,38.06,9.006,41.255,10.459l2.324-13.945c0,0,27.6,20.047,30.796,27.31
			c0,0,4.648-2.905,4.648-10.459c0,0,43.87,39.512,24.405,70.89c0,0-18.885,25.276-67.113-10.459l9.588-3.486
			c0,0-33.411-20.047-36.897-24.695c0,0,9.297-4.866,16.27-3.777C222.553,115.651,200.327,83.62,197.277,73.815z"/>
		<path fill="#5D7428" d="M246.412,102.321c1.418,4.402,2.836,8.804,4.254,13.206c-5.426-4.514-10.856-9.022-16.297-13.517
			c-1.627-1.345-3.651,1.222-2.027,2.564c9.189,7.592,18.348,15.219,27.494,22.863c-5.859-1.636-11.718-3.271-17.578-4.907
			c-2.031-0.567-2.498,2.673-0.497,3.231c8,2.234,16.001,4.467,24.001,6.701c0.038,0.011,0.072,0.011,0.109,0.019
			c0.81,0.679,1.623,1.354,2.433,2.033c2.936,2.462,5.865,4.933,8.795,7.403c0.089,0.107,0.193,0.189,0.303,0.255
			c1.804,1.521,3.606,3.044,5.405,4.569c-5.935-1.107-11.871-2.215-17.807-3.322c-2.078-0.388-2.562,2.846-0.497,3.231
			c7.763,1.448,15.527,2.896,23.29,4.345c2.008,1.713,4.024,3.416,6.023,5.139c4.187,3.607,8.786,8.155,13.024,11.793
			c1.66,1.425,4.079-0.722,2.612-1.966c-4.149-3.518-8.48-7.957-12.547-11.475c-5.672-4.905-11.394-9.752-17.127-14.585
			c-2.233-8.3-4.467-16.6-6.7-24.9c-0.546-2.029-3.571-0.783-3.029,1.229c1.795,6.671,3.59,13.343,5.385,20.014
			c-1.474-1.239-2.945-2.483-4.42-3.721c-5.225-4.385-10.461-8.757-15.701-13.124c-0.014-0.079-0.025-0.157-0.052-0.238
			c-1.94-6.023-3.88-12.046-5.821-18.069C248.796,99.087,245.769,100.324,246.412,102.321z"/>
	</g>
	<g>
		<path fill="#F18E5D" d="M400.285,83.678c0,1.402-1.137,2.539-2.539,2.539l0,0c-1.402,0-2.539-1.137-2.539-2.539l0,0
			c0-1.402,1.137-2.539,2.539-2.539l0,0C399.148,81.139,400.285,82.276,400.285,83.678L400.285,83.678z"/>
		<path fill="#F18E5D" d="M389.493,81.536c0,1.008-0.817,1.825-1.825,1.825l0,0c-1.008,0-1.825-0.817-1.825-1.825l0,0
			c0-1.008,0.817-1.825,1.825-1.825l0,0C388.676,79.71,389.493,80.528,389.493,81.536L389.493,81.536z"/>
		<path fill="#F18E5D" d="M386.16,89.55c0,1.578-1.279,2.857-2.857,2.857l0,0c-1.578,0-2.857-1.279-2.857-2.857l0,0
			c0-1.578,1.279-2.857,2.857-2.857l0,0C384.882,86.693,386.16,87.972,386.16,89.55L386.16,89.55z"/>
		<path fill="#F18E5D" d="M392.667,95.263c0,1.49-1.208,2.698-2.698,2.698l0,0c-1.49,0-2.698-1.208-2.698-2.698l0,0
			c0-1.49,1.208-2.698,2.698-2.698l0,0C391.459,92.565,392.667,93.773,392.667,95.263L392.667,95.263z"/>
		<path fill="#F18E5D" d="M397.111,89.947c0,0.92-0.746,1.666-1.666,1.666l0,0c-0.92,0-1.666-0.746-1.666-1.666l0,0
			c0-0.92,0.746-1.666,1.666-1.666l0,0C396.365,88.28,397.111,89.026,397.111,89.947L397.111,89.947z"/>
		<path fill="#F18E5D" d="M401.713,97.009c0,1.052-0.853,1.904-1.904,1.904l0,0c-1.052,0-1.904-0.853-1.904-1.904l0,0
			c0-1.052,0.853-1.904,1.904-1.904l0,0C400.861,95.105,401.713,95.957,401.713,97.009L401.713,97.009z"/>
		<path fill="#F18E5D" d="M408.537,100.897c0,0.833-0.675,1.508-1.508,1.508l0,0c-0.833,0-1.508-0.675-1.508-1.508l0,0
			c0-0.833,0.675-1.508,1.508-1.508l0,0C407.862,99.39,408.537,100.065,408.537,100.897L408.537,100.897z"/>
		<path fill="#F18E5D" d="M410.124,87.804c0,1.402-1.137,2.539-2.539,2.539l0,0c-1.402,0-2.539-1.137-2.539-2.539l0,0
			c0-1.402,1.137-2.539,2.539-2.539l0,0C408.988,85.265,410.124,86.402,410.124,87.804L410.124,87.804z"/>
		<path fill="#F18E5D" d="M413.14,93.597c0,1.183-0.959,2.142-2.142,2.142l0,0c-1.183,0-2.142-0.959-2.142-2.142l0,0
			c0-1.183,0.959-2.142,2.142-2.142l0,0C412.181,91.454,413.14,92.414,413.14,93.597L413.14,93.597z"/>
		<path fill="#F18E5D" d="M419.329,88.122c0,0.876-0.711,1.587-1.587,1.587l0,0c-0.876,0-1.587-0.711-1.587-1.587l0,0
			c0-0.876,0.711-1.587,1.587-1.587l0,0C418.619,86.535,419.329,87.245,419.329,88.122L419.329,88.122z"/>
		<path fill="#F18E5D" d="M421.551,79.155c0,1.271-1.03,2.301-2.301,2.301l0,0c-1.271,0-2.301-1.03-2.301-2.301l0,0
			c0-1.271,1.03-2.301,2.301-2.301l0,0C420.521,76.854,421.551,77.884,421.551,79.155L421.551,79.155z"/>
	</g>
</g>
</svg>
