<svg xmlns:dc="http://purl.org/dc/elements/1.1/" xmlns:cc="http://creativecommons.org/ns#" xmlns:rdf="http://www.w3.org/1999/02/22-rdf-syntax-ns#" xmlns:svg="http://www.w3.org/2000/svg" xmlns="http://www.w3.org/2000/svg" xmlns:sodipodi="http://sodipodi.sourceforge.net/DTD/sodipodi-0.dtd" xmlns:inkscape="http://www.inkscape.org/namespaces/inkscape" version="1.1" id="svg100" inkscape:version="1.0.1 (3bc2e813f5, 2020-09-07)" sodipodi:docname="flower.svg" viewBox="81.63 126.05 48.4 44.23">
  <defs id="defs94"/>
  <sodipodi:namedview id="base" pagecolor="#ffffff" bordercolor="#666666" borderopacity="1.0" inkscape:pageopacity="0.0" inkscape:pageshadow="2" inkscape:zoom="0.35" inkscape:cx="400" inkscape:cy="560" inkscape:document-units="mm" inkscape:current-layer="layer1" inkscape:document-rotation="0" showgrid="false" inkscape:window-width="1366" inkscape:window-height="633" inkscape:window-x="0" inkscape:window-y="36" inkscape:window-maximized="1"/>
  <metadata id="metadata97">
    <rdf:RDF>
      <cc:Work rdf:about="">
        <dc:format>image/svg+xml</dc:format>
        <dc:type rdf:resource="http://purl.org/dc/dcmitype/StillImage"/>
        <dc:title/>
      </cc:Work>
    </rdf:RDF>
  </metadata>
  <g inkscape:label="Layer 1" inkscape:groupmode="layer" id="layer1">
    <g id="g18" transform="matrix(0.26458333,0,0,0.26458333,0.33774195,125.72497)">
      <path fill="#ea575d" d="m 358.052,58.924 c 0,0 -15.219,-22.806 4.174,-57.669 0,0 30.942,8.498 37.043,38.35 0,0 5.665,-25.494 48.809,-31.595 0,0 13.292,32.031 -13.292,58.179 0,0 31.813,-6.101 55.346,31.813 0,0 -5.012,13.51 -44.015,15.253 0,0 11.767,13.945 3.268,50.988 0,0 -29.198,-0.872 -45.541,-31.595 0,0 -5.883,23.751 -46.194,35.735 0,0 -16.124,-37.479 10.677,-63.626 0,0 -33.121,11.984 -61.012,-33.338 0,-10e-4 22.159,-17.145 50.737,-12.495 z" id="path2"/>
      <g id="g16">
        <path fill="#ffdd5b" d="m 401.375,62.92 c 0,0 1.598,-11.476 3.922,-13.074 l 0.726,11.04 c 0,0 5.52,-14.527 10.459,-18.158 0,0 -4.358,17.141 -5.23,20.628 l 13.655,-18.885 c 0,0 -2.179,13.8 -7.99,22.661 0,0 17.141,-20.773 17.141,-23.242 0,0 -1.307,17.141 -13.8,27.6 0,0 -12.202,-8.28 -18.885,-7.99" id="path4"/>
        <path fill="#ffdd5b" d="m 421.712,77.591 c 0,0 9.442,-2.034 12.929,-2.034 l -9.878,5.665 c 0,0 16.56,-1.162 21.209,2.905 l -22.516,3.341 24.114,4.358 -18.739,2.615 21.499,6.392 -14.091,1.307 -16.706,-9.588 z" id="path6"/>
        <path fill="#ffdd5b" d="m 383.144,93.789 c 0,0 -15.543,2.905 -19.03,2.905 l 9.878,-5.665 c 0,0 -16.56,1.162 -21.209,-2.905 l 22.516,-3.341 -24.114,-4.358 18.739,-2.615 -21.499,-6.392 14.091,-1.307 16.706,9.588 z" id="path8"/>
        <path fill="#ffdd5b" d="m 415.538,96.767 c 0,0 9.588,5.738 11.984,10.386 l -8.207,-2.252 c 0,0 11.04,10.822 11.04,17.069 l -17.577,-14.091 12.493,20.192 c 0,0 -13.51,-10.822 -15.398,-13.873 0,0 7.191,15.761 11.185,22.08 0,0 -17.287,-9.878 -21.499,-32.176 0,0 13.364,-4.358 15.979,-7.335 z" id="path10"/>
        <path fill="#ffdd5b" d="m 398.398,104.38 c 0,0 0.446,11.165 -2.133,15.715 l -2.608,-8.101 c 0,0 -3.014,15.163 -8.242,18.582 l 2.172,-22.423 -10.061,21.507 c 0,0 1.663,-17.23 3.182,-20.48 0,0 -9.255,14.645 -12.357,21.447 0,0 -1.195,-19.874 15.161,-35.605 0,0 10.963,8.799 14.886,9.358 z" id="path12"/>
        <path fill="#ffdd5b" d="m 379.73,73.597 c 0,0 -8.571,-8.643 -10.459,-13.655 l 10.169,6.246 c 0,0 -7.844,-9.37 -7.699,-19.538 0,0 9.006,10.386 13.873,17.65 l -7.99,-22.807 c 0,0 9.515,9.66 12.202,16.488 0,0 -5.447,-22.008 -6.682,-24.477 0,0 9.951,9.66 13.873,29.198 z" id="path14"/>
      </g>
    </g>
  </g>
</svg>